<?xml version="1.0" standalone="no"?>
<!DOCTYPE svg PUBLIC "-//W3C//DTD SVG 20010904//EN"
 "http://www.w3.org/TR/2001/REC-SVG-20010904/DTD/svg10.dtd">
<svg version="1.0" xmlns="http://www.w3.org/2000/svg"
 width="587.000000pt" height="281.000000pt" viewBox="0 0 587.000000 281.000000"
 preserveAspectRatio="xMidYMid meet">

<g transform="translate(0.000000,281.000000) scale(0.100000,-0.100000)"
fill="#000000" stroke="none">
<path d="M2674 2275 c-259 -46 -503 -201 -659 -419 -55 -78 -147 -267 -147
-304 -1 -15 -7 -57 -14 -93 -8 -37 -16 -107 -18 -155 -3 -58 -2 -73 3 -44 6
37 8 41 12 20 3 -14 5 7 3 45 -3 54 -1 63 6 40 7 -24 8 -19 5 25 -3 40 -2 50
5 35 8 -15 9 -10 5 20 -4 26 -2 35 3 27 11 -17 27 52 16 70 -5 7 -3 8 6 3 10
-6 12 -3 8 13 -4 12 -2 20 3 16 5 -3 9 0 9 7 0 6 20 52 45 101 145 288 410
483 730 539 162 28 382 -4 549 -80 371 -168 603 -581 558 -990 -25 -225 -97
-397 -240 -571 l-45 -55 52 50 c80 75 43 16 -43 -70 -39 -39 -104 -92 -143
-118 -79 -52 -106 -79 -52 -51 215 110 389 323 472 579 41 125 49 170 57 325
l8 145 -3 -160 c-4 -229 -43 -368 -153 -548 -23 -37 -42 -69 -42 -71 0 -2 8
-3 18 -2 23 4 95 123 133 220 52 135 72 244 72 401 1 279 -75 492 -247 694
-133 156 -343 287 -541 337 -126 32 -311 40 -431 19z"/>
<path d="M3272 1922 c-138 -92 -304 -280 -461 -524 -51 -79 -68 -98 -92 -102
-16 -3 -42 -9 -59 -12 -30 -6 -64 -40 -54 -56 3 -4 20 -16 39 -26 l33 -17 -80
-140 c-77 -135 -249 -476 -263 -522 -3 -13 -2 -23 3 -23 6 0 53 87 105 193
100 202 253 477 265 477 19 0 223 -96 270 -127 74 -49 139 -128 158 -188 11
-37 13 -72 8 -133 -7 -83 -1 -99 26 -67 9 11 11 36 7 83 -6 79 4 195 35 380
l21 133 51 -5 51 -6 -45 22 c-25 13 -46 23 -47 23 -3 1 66 318 106 490 27 117
29 132 15 152 -19 30 -40 29 -92 -5z m84 -5 c3 -8 -14 -90 -36 -183 -22 -93
-52 -221 -65 -284 -14 -63 -27 -126 -31 -139 l-5 -24 -211 7 c-117 3 -214 9
-217 11 -8 9 110 174 215 299 112 134 306 326 329 326 9 0 18 -6 21 -13z
m-153 -666 c4 -4 -1 -59 -12 -122 -10 -63 -22 -145 -26 -182 l-7 -68 -20 33
c-50 83 -118 135 -292 221 -67 32 -123 61 -125 63 -2 2 9 20 24 40 l28 37 211
-7 c116 -4 215 -11 219 -15z m-483 2 c0 -5 -7 -17 -15 -27 -12 -16 -19 -18
-40 -8 -42 19 -29 40 28 41 15 1 27 -2 27 -6z"/>
<path d="M3610 538 c-29 -32 -80 -82 -113 -110 -55 -46 -84 -86 -54 -75 7 3
11 9 10 15 -1 5 5 16 15 24 15 12 16 11 3 -4 -7 -10 -9 -18 -4 -18 14 0 193
169 193 182 0 6 -8 4 -17 -3 -16 -13 -17 -12 -4 4 8 9 16 15 19 12 6 -6 32 14
32 25 0 22 -35 -1 -80 -52z m-60 -81 c0 -2 -15 -16 -32 -33 l-33 -29 29 33
c28 30 36 37 36 29z"/>
<path d="M2050 567 c0 -2 15 -16 33 -33 l32 -29 -29 33 c-28 30 -36 37 -36 29z"/>
<path d="M2170 446 c0 -2 8 -10 18 -17 15 -13 16 -12 3 4 -13 16 -21 21 -21
13z"/>
<path d="M3395 354 c-38 -30 -200 -103 -267 -121 -38 -10 -68 -20 -68 -24 0
-3 -12 -4 -26 -1 -20 4 -25 2 -19 -7 5 -10 -5 -11 -41 -7 -34 4 -43 3 -29 -3
16 -8 8 -10 -35 -12 -49 -2 -51 -3 -15 -7 57 -5 175 15 280 49 110 36 247 107
251 132 3 21 -5 21 -31 1z"/>
</g>
</svg>
